<svg width="394" height="118" viewBox="0 0 394 118" fill="#FFFEFE" xmlns="http://www.w3.org/2000/svg">
<path d="M37.1164 47.0107C21.8197 43.3658 19.0965 40.8076 19.0965 35.4321C19.0965 30.3538 23.8815 26.9362 30.9972 26.9362C37.8949 26.9362 44.7345 29.5313 51.9052 34.874C52.1221 35.0358 52.394 35.1002 52.6616 35.0579C52.9293 35.0178 53.1663 34.8708 53.3228 34.6499L60.7919 24.1295C61.0987 23.6961 61.0151 23.0988 60.6014 22.7679C52.0671 15.9252 42.4568 12.5985 31.2237 12.5985C14.7073 12.5985 3.17051 22.5025 3.17051 36.6732C3.17051 51.8692 13.1225 57.25 30.3203 61.4033C44.9579 64.7723 47.4281 67.5949 47.4281 72.6405C47.4281 78.2315 42.4325 81.7073 34.3933 81.7073C25.4644 81.7073 18.1816 78.702 10.0344 71.6521C9.83235 71.4776 9.55512 71.3984 9.29916 71.4132C9.02936 71.4354 8.78283 71.5601 8.6115 71.7663L0.236883 81.7253C-0.114351 82.1386 -0.0699127 82.756 0.336395 83.1134C9.81543 91.5692 21.4738 96.0355 34.0548 96.0355C51.8524 96.0355 63.3532 86.3185 63.3532 71.279C63.3849 58.583 55.7785 51.5532 37.1482 47.0245L37.1164 47.0107ZM103.618 31.9363C95.9036 31.9363 89.5761 34.9723 84.3583 41.1934V34.191C84.3583 33.6382 83.9098 33.1879 83.3576 33.1879H69.6605C69.1072 33.1879 68.6597 33.6382 68.6597 34.191V111.997C68.6597 112.55 69.1072 113 69.6605 113H83.3576C83.9098 113 84.3583 112.55 84.3583 111.997V87.4369C89.5772 93.2891 95.9058 96.1486 103.618 96.1486C117.952 96.1486 132.463 85.1229 132.463 64.0461C132.484 42.9641 117.969 31.9352 103.634 31.9352L103.618 31.9363ZM116.535 64.0461C116.535 74.7791 109.919 82.2687 100.445 82.2687C91.0794 82.2687 84.0146 74.4386 84.0146 64.0461C84.0146 53.6547 91.0794 45.8236 100.445 45.8236C109.766 45.8225 116.537 53.4845 116.537 64.045L116.535 64.0461ZM169.654 31.9363C151.194 31.9363 136.732 46.1397 136.732 64.2755C136.732 82.2137 151.095 96.268 169.428 96.268C187.953 96.268 202.46 82.1122 202.46 64.0461C202.46 46.0424 188.051 31.9384 169.653 31.9384L169.654 31.9363ZM169.654 82.3754C159.836 82.3754 152.433 74.4925 152.433 64.0408C152.433 53.5447 159.58 45.9282 169.428 45.9282C179.31 45.9282 186.762 53.8111 186.762 64.2702C186.762 74.7642 179.568 82.3754 169.655 82.3754H169.654ZM241.879 33.1879H226.807V17.79C226.807 17.2382 226.361 16.7878 225.807 16.7878H212.112C211.558 16.7878 211.108 17.2382 211.108 17.79V33.1879H204.523C203.972 33.1879 203.525 33.6382 203.525 34.1911V45.9536C203.525 46.5054 203.972 46.9568 204.523 46.9568H211.108V77.3922C211.108 89.6917 217.235 95.9277 229.318 95.9277C234.231 95.9277 238.307 94.9139 242.148 92.7373C242.46 92.5628 242.654 92.2267 242.654 91.8694V80.6682C242.654 80.3225 242.474 79.9959 242.178 79.8152C241.879 79.628 241.508 79.6185 241.202 79.7697C238.564 81.0964 236.013 81.7084 233.162 81.7084C228.767 81.7084 226.807 79.7147 226.807 75.2463V46.9622H241.879C242.433 46.9622 242.878 46.5118 242.878 45.959V34.1975C242.899 33.6447 242.455 33.1943 241.894 33.1943L241.879 33.1879ZM263.948 33.1879H250.251C249.697 33.1879 249.247 33.6382 249.247 34.1911V93.9022C249.247 94.455 249.697 94.9053 250.251 94.9053H263.948C264.5 94.9053 264.952 94.455 264.952 93.9022V34.1953C264.952 34.0634 264.926 33.9327 264.876 33.8108C264.825 33.6888 264.751 33.5781 264.658 33.4849C264.565 33.3916 264.454 33.3178 264.332 33.2675C264.21 33.2173 264.079 33.1917 263.947 33.1921L263.948 33.1879ZM257.177 6C251.751 6 247.348 10.3891 247.348 15.8111C247.348 21.2362 251.752 25.6307 257.177 25.6307C262.601 25.6307 267 21.2362 267 15.8111C267 10.3902 262.599 6 257.183 6H257.177Z" fill="#FFFEFE"/>
<path fill-rule="evenodd" clip-rule="evenodd" d="M334.5 118C367.361 118 394 91.5848 394 59C394 26.4152 367.361 0 334.5 0C301.639 0 275 26.4152 275 59C275 91.5848 301.639 118 334.5 118ZM313.212 47.912C314.572 48.592 315.637 49.5667 316.408 50.836H330.756C329.804 45.804 327.356 41.8373 323.412 38.936C319.468 36.0347 314.481 34.584 308.452 34.584C303.647 34.584 299.408 35.6267 295.736 37.712C292.064 39.752 289.208 42.6307 287.168 46.348C285.173 50.02 284.176 54.2133 284.176 58.928C284.176 63.688 285.173 67.9267 287.168 71.644C289.208 75.316 292.064 78.1947 295.736 80.28C299.453 82.32 303.715 83.34 308.52 83.34C312.464 83.34 315.977 82.6373 319.06 81.232C322.143 79.7813 324.681 77.9453 326.676 75.724C328.716 73.5027 330.257 71.1227 331.3 68.584V55.664H306.412V65.252H319.808C317.813 69.468 314.481 71.576 309.812 71.576C305.868 71.576 302.853 70.5107 300.768 68.38C298.728 66.204 297.708 63.0533 297.708 58.928C297.708 55.256 298.66 52.332 300.564 50.156C302.513 47.98 305.165 46.892 308.52 46.892C310.333 46.892 311.897 47.232 313.212 47.912ZM347.881 80.348C351.644 82.4333 355.769 83.476 360.257 83.476C364.745 83.476 368.87 82.4333 372.633 80.348C376.396 78.2173 379.365 75.2933 381.541 71.576C383.717 67.8133 384.805 63.5747 384.805 58.86C384.805 54.1453 383.717 49.9293 381.541 46.212C379.365 42.4493 376.396 39.5253 372.633 37.44C368.916 35.3547 364.79 34.312 360.257 34.312C355.769 34.312 351.644 35.3547 347.881 37.44C344.118 39.5253 341.126 42.4493 338.905 46.212C336.729 49.9293 335.641 54.1453 335.641 58.86C335.641 63.5747 336.729 67.8133 338.905 71.576C341.126 75.2933 344.118 78.2173 347.881 80.348ZM368.281 67.768C366.332 69.9893 363.657 71.1 360.257 71.1C356.812 71.1 354.114 70.012 352.165 67.836C350.216 65.6147 349.241 62.6227 349.241 58.86C349.241 55.052 350.216 52.06 352.165 49.884C354.114 47.6627 356.812 46.552 360.257 46.552C363.657 46.552 366.332 47.6627 368.281 49.884C370.276 52.06 371.273 55.052 371.273 58.86C371.273 62.5773 370.276 65.5467 368.281 67.768Z" fill="#2EBD59"/>
</svg>
